<?xml version="1.0" encoding="utf-8" ?><svg xmlns="http://www.w3.org/2000/svg" xmlns:xlink="http://www.w3.org/1999/xlink" width="795" height="795" viewBox="0 0 795 795"><path fill="#2F93E2" transform="scale(0.776367 0.776367)" d="M216.523 517.59C206.749 527.01 195.773 534.467 182.229 537.009C149.244 543.197 119.66 520.499 114.146 487.572C111.534 471.388 115.454 454.829 125.047 441.535C132.392 431.452 159.581 408.129 170.056 398.817L250.306 327.167L404.585 187.46C426.923 167.153 447.986 145.223 471.163 125.925C490.751 109.506 522.732 106.746 544.605 120.229C558.221 128.623 571.892 143.965 583.748 155.225C604.802 175.123 626.169 194.687 647.842 213.908C655.101 220.29 668.413 232.53 675.905 237.946L676.472 238.351L676.368 214.312L676.313 178.525C676.307 167.797 674.401 156.308 683.242 148.463C690.789 141.766 698.391 140.359 708.104 140.36C732.339 140.3 756.611 140.11 780.844 140.354C783.462 140.38 788.832 141.163 791.156 142.004C798.728 144.641 807.267 153.834 808.292 162.025C809.346 170.449 808.977 180.137 808.985 188.734L809.007 234.565L808.93 314.736C808.896 327.301 809.388 343.025 808.704 355.186C811.326 359.579 822.567 370.652 826.618 374.522C840.249 386.944 854.234 400.299 867.971 412.544C890.152 432.315 908.565 444.179 911.109 476.641C913.521 507.415 889.1 535.353 858.503 538.162C838.83 539.968 822.612 529.121 808.521 517.081C807.774 520.803 808.236 530.744 808.322 534.926C808.44 543.827 808.462 552.728 808.389 561.63C808.373 566.165 808.517 574.708 808.018 578.992C810.451 583.132 815.221 586.243 817.492 589.873C830.989 611.443 829.355 642.723 806.994 657.421C806.918 660.23 806.614 667.39 807.124 669.83C808.044 674.24 810.569 681.296 812.264 685.579C819.673 704.295 823.46 719.919 817.06 739.784C815.799 743.698 812.807 748.213 810.686 751.701C809.846 753.082 807.875 755.294 807.289 756.558C808.101 780.143 806.422 804.313 807.448 827.807C808.848 859.828 782.126 887.037 750.238 887.07C730.84 887.179 711.911 887.257 692.754 887.262L600.207 887.304C549.146 887.141 497.212 887.976 446.261 887.006C438.225 887.804 435.471 889.114 427.986 892.101C402.34 902.333 374.823 916.972 349.944 896.04C346.732 893.337 343.808 890.021 340.501 887.472L339.979 887.077C318.148 886.362 294.761 887.296 272.722 886.696C258.39 886.641 243.637 878.769 233.694 868.63C214.101 848.653 216.882 817.371 216.899 791.606L216.94 730.774L216.82 626.605C216.67 602.248 216.122 577.322 216.452 552.987C217.603 559.284 218.553 562.168 220.488 568.211L221.294 568.468C221.008 562.122 216.495 554.731 220.505 548.021C217.859 540.895 221.468 529.483 224.201 522.837C224.293 526.63 224.273 530.99 224.874 534.682C224.651 522.441 224.416 518.434 228.732 507.198C227.023 507.514 218.349 515.81 216.523 517.59Z"/><path fill="#4783CC" transform="scale(0.776367 0.776367)" d="M216.523 517.59C206.749 527.01 195.773 534.467 182.229 537.009C149.244 543.197 119.66 520.499 114.146 487.572C111.534 471.388 115.454 454.829 125.047 441.535C132.392 431.452 159.581 408.129 170.056 398.817L250.306 327.167L404.585 187.46C426.923 167.153 447.986 145.223 471.163 125.925C490.751 109.506 522.732 106.746 544.605 120.229C558.221 128.623 571.892 143.965 583.748 155.225C604.802 175.123 626.169 194.687 647.842 213.908C655.101 220.29 668.413 232.53 675.905 237.946L676.472 238.351L676.368 214.312L676.313 178.525C676.307 167.797 674.401 156.308 683.242 148.463C690.789 141.766 698.391 140.359 708.104 140.36C732.339 140.3 756.611 140.11 780.844 140.354C783.462 140.38 788.832 141.163 791.156 142.004C798.728 144.641 807.267 153.834 808.292 162.025C809.346 170.449 808.977 180.137 808.985 188.734L809.007 234.565L808.93 314.736C808.896 327.301 809.388 343.025 808.704 355.186C811.326 359.579 822.567 370.652 826.618 374.522C840.249 386.944 854.234 400.299 867.971 412.544C890.152 432.315 908.565 444.179 911.109 476.641C913.521 507.415 889.1 535.353 858.503 538.162C838.83 539.968 822.612 529.121 808.521 517.081C804.412 515.463 799.429 507.193 796.114 506.586C794.836 505.549 794.041 504.072 792.905 502.892C789.649 499.507 786.483 495.981 783.005 492.822L604.793 330.999L564.575 294.494C550.616 281.788 538.415 267.412 518.842 264.553C488.363 260.1 475.611 276.627 455.292 295.353L403.396 343.244L295.058 441.872C282.33 453.392 269.708 465.028 257.191 476.777C250.28 483.154 243.311 489.564 236.431 495.98C233.718 498.51 229.584 506.444 228.732 507.198C227.023 507.514 218.349 515.81 216.523 517.59Z"/><path fill="#BD3A31" transform="scale(0.776367 0.776367)" d="M224.201 522.837C224.293 526.63 224.273 530.99 224.874 534.682C226.886 555.611 237.139 564.444 251.759 577.402C260.129 584.835 268.584 592.172 277.123 599.411C294.894 614.628 312.498 630.039 329.932 645.641L439.935 742.664L476.636 775.345C496.175 792.819 507.463 807.543 536.168 804.648C545.241 803.663 553.878 800.245 561.166 794.754C569.103 788.735 585.729 772.167 593.018 765.022C613.211 745.191 633.235 725.189 653.089 705.019C683.668 674.535 714.084 643.887 744.334 613.075C758.798 598.406 778.813 579.459 792.186 564.032C797.423 569.061 802.7 574.048 808.018 578.992C810.451 583.132 815.221 586.243 817.492 589.873C830.989 611.443 829.355 642.723 806.994 657.421C806.918 660.23 806.614 667.39 807.124 669.83C808.044 674.24 810.569 681.296 812.264 685.579C819.673 704.295 823.46 719.919 817.06 739.784C815.799 743.698 812.807 748.213 810.686 751.701C809.846 753.082 807.875 755.294 807.289 756.558C808.101 780.143 806.422 804.313 807.448 827.807C808.848 859.828 782.126 887.037 750.238 887.07C730.84 887.179 711.911 887.257 692.754 887.262L600.207 887.304C549.146 887.141 497.212 887.976 446.261 887.006C438.225 887.804 435.471 889.114 427.986 892.101C402.34 902.333 374.823 916.972 349.944 896.04C346.732 893.337 343.808 890.021 340.501 887.472L339.979 887.077C318.148 886.362 294.761 887.296 272.722 886.696C258.39 886.641 243.637 878.769 233.694 868.63C214.101 848.653 216.882 817.371 216.899 791.606L216.94 730.774L216.82 626.605C216.67 602.248 216.122 577.322 216.452 552.987C217.603 559.284 218.553 562.168 220.488 568.211L221.294 568.468C221.008 562.122 216.495 554.731 220.505 548.021C217.859 540.895 221.468 529.483 224.201 522.837Z"/><path fill="#D5A10C" transform="scale(0.776367 0.776367)" d="M224.201 522.837C224.293 526.63 224.273 530.99 224.874 534.682C226.886 555.611 237.139 564.444 251.759 577.402C260.129 584.835 268.584 592.172 277.123 599.411C294.894 614.628 312.498 630.039 329.932 645.641L439.935 742.664L476.636 775.345C496.175 792.819 507.463 807.543 536.168 804.648C545.241 803.663 553.878 800.245 561.166 794.754C569.103 788.735 585.729 772.167 593.018 765.022C613.211 745.191 633.235 725.189 653.089 705.019C683.668 674.535 714.084 643.887 744.334 613.075C758.798 598.406 778.813 579.459 792.186 564.032C797.423 569.061 802.7 574.048 808.018 578.992C810.451 583.132 815.221 586.243 817.492 589.873C830.989 611.443 829.355 642.723 806.994 657.421C796.726 663.018 783.03 672.186 772.825 678.605L714.625 715.027L554.554 813.781C541.438 821.958 528.375 830.222 515.367 838.57C505.718 844.74 491.055 854.938 480.607 858.373C466.918 862.916 451.988 861.87 439.066 855.461C432.875 852.327 426.725 847.371 422.566 841.85C414.085 830.592 405.975 818.545 397.949 806.916C382.785 784.677 367.499 762.521 352.092 740.45C321.711 697.964 291.754 655.177 262.226 612.094L239.954 579.999C231.935 568.522 224.824 561.527 220.505 548.021C217.859 540.895 221.468 529.483 224.201 522.837Z"/><defs><linearGradient id="gradient_0" gradientUnits="userSpaceOnUse" x1="620.65881" y1="806.52368" x2="675.59686" y2="925.76428"><stop offset="0" stop-color="#317943"/><stop offset="1" stop-color="#4FAE68"/></linearGradient></defs><path fill="url(#gradient_0)" transform="scale(0.776367 0.776367)" d="M446.261 887.006C450.494 882.834 472.232 876.072 479.103 873.509C555.543 844.999 633.506 820.968 710.697 794.607L767.761 775.57C784.327 769.923 794.127 768.602 807.289 756.558C808.101 780.143 806.422 804.313 807.448 827.807C808.848 859.828 782.126 887.037 750.238 887.07C730.84 887.179 711.911 887.257 692.754 887.262L600.207 887.304C549.146 887.141 497.212 887.976 446.261 887.006Z"/><defs><linearGradient id="gradient_1" gradientUnits="userSpaceOnUse" x1="282.09305" y1="719.06677" x2="185.86749" y2="757.47809"><stop offset="0" stop-color="#39864D"/><stop offset="1" stop-color="#4FAE6A"/></linearGradient></defs><path fill="url(#gradient_1)" transform="scale(0.776367 0.776367)" d="M216.452 552.987C217.603 559.284 218.553 562.168 220.488 568.211L221.294 568.468C226.619 585.566 235.379 604.829 241.76 621.77C247.696 637.529 253.978 653.42 259.771 669.22C273.692 707.279 287.326 745.442 300.672 783.706C307.223 803.184 313.981 822.591 320.945 841.925C325.706 855.317 332.026 876.056 339.979 887.077C318.148 886.362 294.761 887.296 272.722 886.696C258.39 886.641 243.637 878.769 233.694 868.63C214.101 848.653 216.882 817.371 216.899 791.606L216.94 730.774L216.82 626.605C216.67 602.248 216.122 577.322 216.452 552.987Z"/><path fill="#3B7840" transform="scale(0.776367 0.776367)" d="M796.114 506.586C799.429 507.193 804.412 515.463 808.521 517.081C807.774 520.803 808.236 530.744 808.322 534.926C808.44 543.827 808.462 552.728 808.389 561.63C808.373 566.165 808.517 574.708 808.018 578.992C802.7 574.048 797.423 569.061 792.186 564.032C806.208 544.714 806.622 527.577 796.114 506.586Z"/><path fill="#3B7840" transform="scale(0.776367 0.776367)" d="M216.523 517.59C218.349 515.81 227.023 507.514 228.732 507.198C224.416 518.434 224.651 522.441 224.874 534.682C224.273 530.99 224.293 526.63 224.201 522.837C221.468 529.483 217.859 540.895 220.505 548.021C216.495 554.731 221.008 562.122 221.294 568.468L220.488 568.211C218.553 562.168 217.603 559.284 216.452 552.987C216.027 545.26 216.217 525.247 216.523 517.59Z"/></svg>