<?xml version="1.0" encoding="utf-8" ?><svg xmlns="http://www.w3.org/2000/svg" xmlns:xlink="http://www.w3.org/1999/xlink" width="1024" height="1024" viewBox="0 0 1024 1024"><path fill="#2F93DE" d="M207.607 525.205C196.909 532.652 190.38 535.808 177.249 537.162C161.404 538.796 147.972 535.117 135.637 524.847C122.928 514.318 115.001 499.109 113.648 482.66C111.028 452.632 127.454 437.196 147.467 418.712C161.176 406.251 175.01 393.929 188.967 381.746L293.31 288.099L411.683 180.532L449.213 145.389C456.955 138.202 465.051 130.498 473.444 124.125C492.78 109.443 521.767 107.413 542.919 119.33C555.385 126.353 565.686 137.43 575.879 147.304C583.342 154.532 590.878 161.684 598.486 168.759C623.977 192.52 649.967 215.738 676.44 238.4C676.329 236.82 676.249 235.238 676.2 233.655C675.711 214.287 676.19 194.593 675.971 175.195C675.863 165.713 675.097 156.249 682.283 148.971C690.526 140.623 700.203 140.206 711.331 140.167L758.631 140.096C768.551 140.088 780.072 139.521 789.766 141.24C796.908 142.506 806.459 152.472 807.837 159.688C809.317 167.44 808.935 177.352 808.961 185.463L809.02 222.185L808.936 355.482C813.137 360.498 818.415 365.809 823.058 370.43C838.353 385.659 854.742 400.125 870.686 414.654C890.525 432.733 906.994 443.398 910.718 471.916C915.041 505.03 892.584 534.255 859.291 537.988C840.138 540.125 822.619 529.055 808.52 517.255C808.615 537.876 808.595 558.499 808.46 579.121C811.157 581.993 815.265 585.996 817.431 589.191C823.769 598.541 826.249 610.501 826.036 621.651C825.756 636.219 819.475 649.61 806.815 657.471C806.156 666.401 807.587 673.71 810.911 681.627C820.266 703.913 825.846 730.431 810.724 751.595C809.789 752.904 808.275 754.978 807.506 756.325C807.597 774.372 807.547 792.42 807.356 810.466C807.304 821.419 808.611 832.126 806.098 842.862C801.166 863.928 783.593 880.999 762.59 885.866C755.824 887.434 747.051 887.038 740.022 887.078L712.306 887.222L599.677 887.423L446.338 886.951C425.675 889.263 403.844 906.094 381.42 906.556C360.772 906.981 353.74 899.357 339.621 886.491L335.707 886.526L301.454 886.471C275.643 886.501 254.914 889.989 234.884 869.848C215.227 850.082 217.088 823.859 217.003 798.379L216.946 741.557L215.835 542.812C216.005 534.674 216.059 526.534 215.999 518.395L207.607 525.205Z"/><path fill="#4782C8" d="M207.607 525.205C196.909 532.652 190.38 535.808 177.249 537.162C161.404 538.796 147.972 535.117 135.637 524.847C122.928 514.318 115.001 499.109 113.648 482.66C111.028 452.632 127.454 437.196 147.467 418.712C161.176 406.251 175.01 393.929 188.967 381.746L293.31 288.099L411.683 180.532L449.213 145.389C456.955 138.202 465.051 130.498 473.444 124.125C492.78 109.443 521.767 107.413 542.919 119.33C555.385 126.353 565.686 137.43 575.879 147.304C583.342 154.532 590.878 161.684 598.486 168.759C623.977 192.52 649.967 215.738 676.44 238.4C676.329 236.82 676.249 235.238 676.2 233.655C675.711 214.287 676.19 194.593 675.971 175.195C675.863 165.713 675.097 156.249 682.283 148.971C690.526 140.623 700.203 140.206 711.331 140.167L758.631 140.096C768.551 140.088 780.072 139.521 789.766 141.24C796.908 142.506 806.459 152.472 807.837 159.688C809.317 167.44 808.935 177.352 808.961 185.463L809.02 222.185L808.936 355.482C813.137 360.498 818.415 365.809 823.058 370.43C838.353 385.659 854.742 400.125 870.686 414.654C890.525 432.733 906.994 443.398 910.718 471.916C915.041 505.03 892.584 534.255 859.291 537.988C840.138 540.125 822.619 529.055 808.52 517.255C805.295 514.376 799.5 508.858 796.194 506.69C792.686 503.966 786.711 496.196 782.749 492.512L737.25 450.986L605.964 331.767C593.693 320.719 581.498 309.587 569.382 298.371C551.498 281.861 535.179 262.421 508.536 263.966C485.361 265.31 477.809 274.039 461.967 288.915L436.793 312.339L349.626 392.223L270.938 464.218C263.341 471.161 255.78 478.142 248.254 485.161C244.473 488.622 240.527 491.952 236.761 495.498C234.239 497.872 230.093 505.594 228.597 507.086C226.864 507.459 217.792 516.474 215.999 518.395L207.607 525.205Z"/><path fill="#AE352F" d="M215.999 518.395C217.792 516.474 226.864 507.459 228.597 507.086C226.453 513.097 224.61 519.132 224.422 525.589C224.736 545.452 229.607 556.934 244.202 570.483C260.923 586.006 278.704 600.505 295.907 615.568L399.158 706.587L468.093 767.727C473.743 772.727 479.875 778.002 485.236 783.065C498.492 795.585 511.089 805.469 530.29 804.686C540.324 804.277 549.472 802.786 557.948 796.612C571.6 786.442 583.832 773.896 595.907 761.899C611.043 746.998 626.086 732.002 641.035 716.913L739.936 617.543C753.359 604.193 766.687 590.748 779.919 577.208C784.023 572.915 788.079 568.576 792.087 564.193L808.46 579.121C811.157 581.993 815.265 585.996 817.431 589.191C823.769 598.541 826.249 610.501 826.036 621.651C825.756 636.219 819.475 649.61 806.815 657.471C806.156 666.401 807.587 673.71 810.911 681.627C820.266 703.913 825.846 730.431 810.724 751.595C809.789 752.904 808.275 754.978 807.506 756.325C807.597 774.372 807.547 792.42 807.356 810.466C807.304 821.419 808.611 832.126 806.098 842.862C801.166 863.928 783.593 880.999 762.59 885.866C755.824 887.434 747.051 887.038 740.022 887.078L712.306 887.222L599.677 887.423L446.338 886.951C425.675 889.263 403.844 906.094 381.42 906.556C360.772 906.981 353.74 899.357 339.621 886.491L335.707 886.526L301.454 886.471C275.643 886.501 254.914 889.989 234.884 869.848C215.227 850.082 217.088 823.859 217.003 798.379L216.946 741.557L215.835 542.812C216.005 534.674 216.059 526.534 215.999 518.395Z"/><defs><linearGradient id="gradient_0" gradientUnits="userSpaceOnUse" x1="487.55081" y1="453.90698" x2="592.82031" y2="825.4696"><stop offset="0" stop-color="#AC8612"/><stop offset="1" stop-color="#C99D10"/></linearGradient></defs><path fill="url(#gradient_0)" d="M220.167 547.428C219.791 542.762 219.698 527.758 224.422 525.589C224.736 545.452 229.607 556.934 244.202 570.483C260.923 586.006 278.704 600.505 295.907 615.568L399.158 706.587L468.093 767.727C473.743 772.727 479.875 778.002 485.236 783.065C498.492 795.585 511.089 805.469 530.29 804.686C540.324 804.277 549.472 802.786 557.948 796.612C571.6 786.442 583.832 773.896 595.907 761.899C611.043 746.998 626.086 732.002 641.035 716.913L739.936 617.543C753.359 604.193 766.687 590.748 779.919 577.208C784.023 572.915 788.079 568.576 792.087 564.193L808.46 579.121C811.157 581.993 815.265 585.996 817.431 589.191C823.769 598.541 826.249 610.501 826.036 621.651C825.756 636.219 819.475 649.61 806.815 657.471C801.902 659.573 785.689 670.178 780.62 673.454C767.767 681.704 754.855 689.863 741.887 697.931L560.257 810.133C545.987 818.973 531.804 827.956 517.713 837.08C507.279 843.794 497.167 850.743 486.028 856.132C465.305 866.401 437.257 860.61 423.011 842.134C414.356 830.909 406.178 818.512 398.059 806.753L350.192 737.581C320.746 696.46 291.762 655.01 263.248 613.238L239.763 579.793C235.161 573.343 229.819 566.342 225.718 559.66C223.955 556.789 221.7 550.809 220.167 547.428Z"/><defs><linearGradient id="gradient_1" gradientUnits="userSpaceOnUse" x1="621.80963" y1="809.09283" x2="672.94067" y2="925.07019"><stop offset="0" stop-color="#2C6B3A"/><stop offset="1" stop-color="#51B76A"/></linearGradient></defs><path fill="url(#gradient_1)" d="M807.506 756.325C807.597 774.372 807.547 792.42 807.356 810.466C807.304 821.419 808.611 832.126 806.098 842.862C801.166 863.928 783.593 880.999 762.59 885.866C755.824 887.434 747.051 887.038 740.022 887.078L712.306 887.222L599.677 887.423L446.338 886.951C448.625 884.059 468 877.653 472.369 876.018C492.28 868.454 512.333 861.269 532.516 854.466L697.009 799.277L758.333 778.826C769.957 774.975 782.842 771.105 793.982 766.274C798.354 764.378 804.041 759.52 807.506 756.325Z"/><defs><linearGradient id="gradient_2" gradientUnits="userSpaceOnUse" x1="301.33981" y1="689.21869" x2="177.64758" y2="740.58466"><stop offset="0" stop-color="#2D6D39"/><stop offset="1" stop-color="#53B46C"/></linearGradient></defs><path fill="url(#gradient_2)" d="M215.999 518.395C217.792 516.474 226.864 507.459 228.597 507.086C226.453 513.097 224.61 519.132 224.422 525.589C219.698 527.758 219.791 542.762 220.167 547.428C216.842 562.753 221.948 570.697 227.381 584.76L240.617 618.679C251.196 646.134 261.488 673.698 271.493 701.367C284.124 736.524 296.573 771.746 308.839 807.033L321.327 842.713C326.589 857.802 331.127 872.834 339.621 886.491L335.707 886.526L301.454 886.471C275.643 886.501 254.914 889.989 234.884 869.848C215.227 850.082 217.088 823.859 217.003 798.379L216.946 741.557L215.835 542.812C216.005 534.674 216.059 526.534 215.999 518.395Z"/><path fill="#2C5F36" d="M796.194 506.69C799.5 508.858 805.295 514.376 808.52 517.255C808.615 537.876 808.595 558.499 808.46 579.121L792.087 564.193C795.745 559.6 798.628 554.442 800.625 548.92C805.949 533.98 802.67 520.443 796.194 506.69Z"/></svg>